<svg
  xmlns="http://www.w3.org/2000/svg"
  version="1.0"
  width="148px"
  height="71px"
  viewBox="0 0 887.000000 326.000000"
  preserveAspectRatio="xMidYMid meet"
>
  <g
    transform="translate(0.000000,326.000000) scale(0.100000,-0.100000)"
    fill="#2b689e"
    stroke="none"
  >
    <path d="M570 2360 l0 -230 195 0 195 0 0 -740 0 -740 295 0 295 0 0 740 0 740 200 0 200 0 0 230 0 230 -690 0 -690 0 0 -230z" />
    <path d="M2370 1620 l0 -970 690 0 690 0 0 230 0 230 -400 0 -400 0 0 510 0 510 400 0 400 0 0 230 0 230 -690 0 -690 0 0 -970z" />
    <path d="M4485 2580 c-105 -22 -179 -64 -257 -147 -83 -90 -122 -197 -116 -322 5 -115 34 -168 170 -309 62 -64 219 -228 350 -364 248 -257 261 -274 220 -311 -17 -15 -58 -17 -380 -17 l-362 0 0 -230 0 -230 473 0 c509 0 533 2 635 54 194 98 296 347 222 540 -24 63 -63 106 -534 595 -295 306 -305 291 201 291 l363 0 0 230 0 230 -472 -1 c-260 -1 -491 -5 -513 -9z" />
    <path d="M5830 1620 l0 -970 290 0 290 0 0 970 0 970 -290 0 -290 0 0 -970z" />
    <path d="M7083 2579 c-133 -26 -260 -128 -321 -258 -33 -69 -37 -86 -40 -176 -6 -160 0 -169 416 -600 359 -373 368 -385 320 -419 -19 -14 -73 -16 -380 -16 l-358 0 0 -230 0 -230 465 0 c300 0 483 4 517 11 170 36 312 170 358 339 27 99 8 230 -45 307 -12 18 -105 120 -207 225 -101 106 -255 267 -341 357 -107 112 -157 171 -157 186 0 48 8 50 399 55 l366 5 0 225 0 225 -475 1 c-261 1 -494 -2 -517 -7z" />
    <path d="M2990 1750 l0 -230 380 0 380 0 0 230 0 230 -380 0 -380 0 0 -230z" />
  </g>
</svg>
