<svg xmlns="http://www.w3.org/2000/svg" version="1.0" width="195.000000pt" height="198.000000pt" viewBox="0 0 195.000000 198.000000" preserveAspectRatio="xMidYMid meet">
<g transform="translate(0.000000,198.000000) scale(0.100000,-0.100000)" fill="#273db3" stroke="none">
<path d="M1419 1596 c-143 -51 -333 -209 -440 -367 -87 -129 -160 -315 -175 -450 -4 -32 -9 -59 -13 -58 -3 0 -31 29 -61 64 -32 37 -64 63 -76 64 -11 1 -48 -8 -82 -20 l-62 -21 57 -61 c73 -80 163 -202 209 -283 20 -35 39 -64 42 -64 4 0 41 12 84 26 l78 27 39 81 c22 44 69 130 105 189 36 60 59 106 52 104 -8 -3 -35 -9 -62 -12 -68 -10 -77 -16 -124 -87 l-42 -63 6 90 c6 99 36 221 83 331 72 172 238 370 397 473 68 44 75 51 50 51 -16 -1 -45 -7 -65 -14z"/>
</g>
</svg>
